<?xml version="1.0" encoding="utf-8"?>
<svg viewBox="703.252 -5.51 148.889 89.986" xmlns="http://www.w3.org/2000/svg">
  <defs>
    <radialGradient id="radialGradient10486" spreadMethod="pad" gradientTransform="matrix(9.1939087,0,0,-9.1939087,709.07422,333.52832)" gradientUnits="userSpaceOnUse" r="1" cy="0" cx="0">
      <stop id="stop10488" offset="0" style="stop-opacity:1;stop-color:#ffffff"/>
      <stop id="stop10490" offset="0.1014" style="stop-opacity:1;stop-color:#ffffff"/>
      <stop id="stop10492" offset="1" style="stop-opacity:1;stop-color:#aaacae"/>
    </radialGradient>
    <radialGradient id="radialGradient10508" spreadMethod="pad" gradientTransform="matrix(14.810944,0,0,-14.810944,710.80664,338.09277)" gradientUnits="userSpaceOnUse" r="1" cy="0" cx="0">
      <stop id="stop10510" offset="0" style="stop-opacity:1;stop-color:#ffffff"/>
      <stop id="stop10512" offset="0.1014" style="stop-opacity:1;stop-color:#ffffff"/>
      <stop id="stop10514" offset="1" style="stop-opacity:1;stop-color:#aaacae"/>
    </radialGradient>
    <radialGradient id="radialGradient10530" spreadMethod="pad" gradientTransform="matrix(18.21315,0,0,-18.21315,728.91504,318.59619)" gradientUnits="userSpaceOnUse" r="1" cy="0" cx="0">
      <stop id="stop10532" offset="0" style="stop-opacity:1;stop-color:#e7e8e9"/>
      <stop id="stop10534" offset="0.1014" style="stop-opacity:1;stop-color:#e7e8e9"/>
      <stop id="stop10536" offset="1" style="stop-opacity:1;stop-color:#a0a2a4"/>
    </radialGradient>
    <radialGradient id="radialGradient10552" spreadMethod="pad" gradientTransform="matrix(3.1593018,8.4658966,8.4658966,-3.1593018,766.42187,328.03516)" gradientUnits="userSpaceOnUse" r="1" cy="0" cx="0">
      <stop id="stop10554" offset="0" style="stop-opacity:1;stop-color:#ffffff"/>
      <stop id="stop10556" offset="0.1014" style="stop-opacity:1;stop-color:#ffffff"/>
      <stop id="stop10558" offset="1" style="stop-opacity:1;stop-color:#a0a2a4"/>
    </radialGradient>
    <radialGradient id="radialGradient10574" spreadMethod="pad" gradientTransform="matrix(5.0903625,13.640488,13.640488,-5.0903625,762.8125,331.19873)" gradientUnits="userSpaceOnUse" r="1" cy="0" cx="0">
      <stop id="stop10576" offset="0" style="stop-opacity:1;stop-color:#ffffff"/>
      <stop id="stop10578" offset="0.1014" style="stop-opacity:1;stop-color:#ffffff"/>
      <stop id="stop10580" offset="1" style="stop-opacity:1;stop-color:#a0a2a4"/>
    </radialGradient>
    <radialGradient id="radialGradient10596" spreadMethod="pad" gradientTransform="matrix(18.779251,0,0,-18.779251,781.97656,336.20117)" gradientUnits="userSpaceOnUse" r="1" cy="0" cx="0">
      <stop id="stop10598" offset="0" style="stop-opacity:1;stop-color:#e7e8e9"/>
      <stop id="stop10600" offset="0.1014" style="stop-opacity:1;stop-color:#e7e8e9"/>
      <stop id="stop10602" offset="1" style="stop-opacity:1;stop-color:#a0a2a4"/>
    </radialGradient>
    <radialGradient id="radialGradient10618" spreadMethod="pad" gradientTransform="matrix(65.329788,0,0,-65.329773,720.8916,388.20459)" gradientUnits="userSpaceOnUse" r="1" cy="0" cx="0">
      <stop id="stop10620" offset="0" style="stop-opacity:1;stop-color:#ffffff"/>
      <stop id="stop10622" offset="0.0866" style="stop-opacity:1;stop-color:#ffffff"/>
      <stop id="stop10624" offset="0.8539" style="stop-opacity:1;stop-color:#bec0c2"/>
      <stop id="stop10626" offset="1" style="stop-opacity:1;stop-color:#c8cacb"/>
    </radialGradient>
    <clipPath id="clipPath10634" clipPathUnits="userSpaceOnUse">
      <path id="path10636" d="m 0,595.276 841.89,0 L 841.89,0 0,0 0,595.276 Z"/>
    </clipPath>
    <radialGradient id="radialGradient10666" spreadMethod="pad" gradientTransform="matrix(10.180557,6.6583099,6.6583099,-10.180557,688.92187,396.50684)" gradientUnits="userSpaceOnUse" r="1" cy="0" cx="0">
      <stop id="stop10668" offset="0" style="stop-opacity:1;stop-color:#ffffff"/>
      <stop id="stop10670" offset="0.5041" style="stop-opacity:1;stop-color:#ffffff"/>
      <stop id="stop10672" offset="0.8539" style="stop-opacity:1;stop-color:#aaacae"/>
      <stop id="stop10674" offset="1" style="stop-opacity:1;stop-color:#c8cacb"/>
    </radialGradient>
    <radialGradient id="radialGradient10690" spreadMethod="pad" gradientTransform="matrix(3.5256805,2.3052216,2.3052216,-3.5256805,692.24414,390.76807)" gradientUnits="userSpaceOnUse" r="1" cy="0" cx="0">
      <stop id="stop10692" offset="0" style="stop-opacity:1;stop-color:#734a46"/>
      <stop id="stop10694" offset="1" style="stop-opacity:1;stop-color:#e7e8e9"/>
    </radialGradient>
    <radialGradient id="radialGradient10710" spreadMethod="pad" gradientTransform="matrix(10.182694,6.6596985,6.6596985,-10.182678,665.28809,381.05713)" gradientUnits="userSpaceOnUse" r="1" cy="0" cx="0">
      <stop id="stop10712" offset="0" style="stop-opacity:1;stop-color:#ffffff"/>
      <stop id="stop10714" offset="0.5041" style="stop-opacity:1;stop-color:#ffffff"/>
      <stop id="stop10716" offset="0.8539" style="stop-opacity:1;stop-color:#aaacae"/>
      <stop id="stop10718" offset="1" style="stop-opacity:1;stop-color:#c8cacb"/>
    </radialGradient>
    <radialGradient id="radialGradient10734" spreadMethod="pad" gradientTransform="matrix(3.5261688,2.305542,2.305542,-3.5261688,668.61133,375.31592)" gradientUnits="userSpaceOnUse" r="1" cy="0" cx="0">
      <stop id="stop10736" offset="0" style="stop-opacity:1;stop-color:#734a46"/>
      <stop id="stop10738" offset="1" style="stop-opacity:1;stop-color:#e7e8e9"/>
    </radialGradient>
    <radialGradient id="radialGradient10754" spreadMethod="pad" gradientTransform="matrix(43.184296,28.236771,28.236771,-43.184296,678.28125,386.58594)" gradientUnits="userSpaceOnUse" r="1" cy="0" cx="0">
      <stop id="stop10756" offset="0" style="stop-opacity:1;stop-color:#ffffff"/>
      <stop id="stop10758" offset="0.0866" style="stop-opacity:1;stop-color:#ffffff"/>
      <stop id="stop10760" offset="0.8539" style="stop-opacity:1;stop-color:#b4b6b8"/>
      <stop id="stop10762" offset="1" style="stop-opacity:1;stop-color:#c8cacb"/>
    </radialGradient>
    <radialGradient id="radialGradient10778" spreadMethod="pad" gradientTransform="matrix(6.1544189,4.0242767,4.0242767,-6.1544189,691.12891,373.38379)" gradientUnits="userSpaceOnUse" r="1" cy="0" cx="0">
      <stop id="stop10780" offset="0" style="stop-opacity:1;stop-color:#ffffff"/>
      <stop id="stop10782" offset="0.5787" style="stop-opacity:1;stop-color:#ffffff"/>
      <stop id="stop10784" offset="0.7449" style="stop-opacity:1;stop-color:#ffffff"/>
      <stop id="stop10786" offset="1" style="stop-opacity:1;stop-color:#dddedf"/>
    </radialGradient>
    <clipPath id="clipPath10794" clipPathUnits="userSpaceOnUse">
      <path id="path10796" d="m 0,595.276 841.89,0 L 841.89,0 0,0 0,595.276 Z"/>
    </clipPath>
    <radialGradient id="radialGradient10814" spreadMethod="pad" gradientTransform="matrix(6.1543732,4.0242615,4.0242615,-6.1543732,681.55078,367.12109)" gradientUnits="userSpaceOnUse" r="1" cy="0" cx="0">
      <stop id="stop10816" offset="0" style="stop-opacity:1;stop-color:#ffffff"/>
      <stop id="stop10818" offset="0.5787" style="stop-opacity:1;stop-color:#ffffff"/>
      <stop id="stop10820" offset="0.7449" style="stop-opacity:1;stop-color:#ffffff"/>
      <stop id="stop10822" offset="1" style="stop-opacity:1;stop-color:#dddedf"/>
    </radialGradient>
    <clipPath id="clipPath10830" clipPathUnits="userSpaceOnUse">
      <path id="path10832" d="m 0,595.276 841.89,0 L 841.89,0 0,0 0,595.276 Z"/>
    </clipPath>
    <radialGradient id="radialGradient10850" spreadMethod="pad" gradientTransform="matrix(31.691254,0,0,-31.691254,691.4082,366.84424)" gradientUnits="userSpaceOnUse" r="1" cy="0" cx="0">
      <stop id="stop10852" offset="0" style="stop-opacity:1;stop-color:#ffffff"/>
      <stop id="stop10854" offset="0.5041" style="stop-opacity:1;stop-color:#ffffff"/>
      <stop id="stop10856" offset="0.8539" style="stop-opacity:1;stop-color:#b4b6b8"/>
      <stop id="stop10858" offset="1" style="stop-opacity:1;stop-color:#dddedf"/>
    </radialGradient>
    <clipPath id="clipPath10866" clipPathUnits="userSpaceOnUse">
      <path id="path10868" d="m 0,595.276 841.89,0 L 841.89,0 0,0 0,595.276 Z"/>
    </clipPath>
    <linearGradient id="linearGradient10890" spreadMethod="pad" gradientTransform="matrix(1.3635254,-1.883194,-1.883194,-1.3635254,694.09375,362.396)" gradientUnits="userSpaceOnUse" y2="0" x2="1" y1="0" x1="0">
      <stop id="stop10892" offset="0" style="stop-opacity:1;stop-color:#606163"/>
      <stop id="stop10894" offset="1" style="stop-opacity:1;stop-color:#373535"/>
    </linearGradient>
    <clipPath id="clipPath10902" clipPathUnits="userSpaceOnUse">
      <path id="path10904" d="m 0,595.276 841.89,0 L 841.89,0 0,0 0,595.276 Z"/>
    </clipPath>
    <radialGradient id="radialGradient10930" spreadMethod="pad" gradientTransform="matrix(2.7806702,1.8182068,1.8182068,-2.7806702,693.53516,361.20215)" gradientUnits="userSpaceOnUse" r="1" cy="0" cx="0">
      <stop id="stop10932" offset="0" style="stop-opacity:1;stop-color:#96989b"/>
      <stop id="stop10934" offset="1" style="stop-opacity:1;stop-color:#373535"/>
    </radialGradient>
    <linearGradient id="linearGradient10950" spreadMethod="pad" gradientTransform="matrix(1.0606995,-1.6221924,-1.6221924,-1.0606995,694.4375,361.78125)" gradientUnits="userSpaceOnUse" y2="0" x2="1" y1="0" x1="0">
      <stop id="stop10952" offset="0" style="stop-opacity:1;stop-color:#606163"/>
      <stop id="stop10954" offset="1" style="stop-opacity:1;stop-color:#373535"/>
    </linearGradient>
    <clipPath id="clipPath10962" clipPathUnits="userSpaceOnUse">
      <path id="path10964" d="m 0,595.276 841.89,0 L 841.89,0 0,0 0,595.276 Z"/>
    </clipPath>
    <linearGradient id="linearGradient10986" spreadMethod="pad" gradientTransform="matrix(-2.3774567,3.6361542,3.6361542,2.3774567,703.0957,349.00537)" gradientUnits="userSpaceOnUse" y2="0" x2="1" y1="0" x1="0">
      <stop id="stop10988" offset="0" style="stop-opacity:1;stop-color:#ee3338"/>
      <stop id="stop10990" offset="1" style="stop-opacity:1;stop-color:#8f2a2a"/>
    </linearGradient>
    <clipPath id="clipPath10998" clipPathUnits="userSpaceOnUse">
      <path id="path11000" d="m 0,595.276 841.89,0 L 841.89,0 0,0 0,595.276 Z"/>
    </clipPath>
    <radialGradient id="radialGradient11018" spreadMethod="pad" gradientTransform="matrix(9.6436615,0,0,-9.6436615,693.9834,333.32568)" gradientUnits="userSpaceOnUse" r="1" cy="0" cx="0">
      <stop id="stop11020" offset="0" style="stop-opacity:1;stop-color:#ffffff"/>
      <stop id="stop11022" offset="0.1014" style="stop-opacity:1;stop-color:#ffffff"/>
      <stop id="stop11024" offset="1" style="stop-opacity:1;stop-color:#bec0c2"/>
    </radialGradient>
    <radialGradient id="radialGradient11040" spreadMethod="pad" gradientTransform="matrix(15.537918,0,0,-15.537918,695.79883,338.11572)" gradientUnits="userSpaceOnUse" r="1" cy="0" cx="0">
      <stop id="stop11042" offset="0" style="stop-opacity:1;stop-color:#ffffff"/>
      <stop id="stop11044" offset="0.1014" style="stop-opacity:1;stop-color:#ffffff"/>
      <stop id="stop11046" offset="1" style="stop-opacity:1;stop-color:#bec0c2"/>
    </radialGradient>
    <radialGradient id="radialGradient11062" spreadMethod="pad" gradientTransform="matrix(23.12352,0,0,-23.12352,702.05469,341.1665)" gradientUnits="userSpaceOnUse" r="1" cy="0" cx="0">
      <stop id="stop11064" offset="0" style="stop-opacity:1;stop-color:#ffffff"/>
      <stop id="stop11066" offset="0.1014" style="stop-opacity:1;stop-color:#ffffff"/>
      <stop id="stop11068" offset="1" style="stop-opacity:1;stop-color:#bec0c2"/>
    </radialGradient>
    <radialGradient id="radialGradient11084" spreadMethod="pad" gradientTransform="matrix(9.6442261,0,0,-9.6442261,733.71289,333.32568)" gradientUnits="userSpaceOnUse" r="1" cy="0" cx="0">
      <stop id="stop11086" offset="0" style="stop-opacity:1;stop-color:#ffffff"/>
      <stop id="stop11088" offset="0.1014" style="stop-opacity:1;stop-color:#ffffff"/>
      <stop id="stop11090" offset="1" style="stop-opacity:1;stop-color:#bec0c2"/>
    </radialGradient>
    <radialGradient id="radialGradient11106" spreadMethod="pad" gradientTransform="matrix(15.538711,0,0,-15.538711,735.52734,338.11572)" gradientUnits="userSpaceOnUse" r="1" cy="0" cx="0">
      <stop id="stop11108" offset="0" style="stop-opacity:1;stop-color:#ffffff"/>
      <stop id="stop11110" offset="0.1014" style="stop-opacity:1;stop-color:#ffffff"/>
      <stop id="stop11112" offset="1" style="stop-opacity:1;stop-color:#bec0c2"/>
    </radialGradient>
    <radialGradient id="radialGradient11128" spreadMethod="pad" gradientTransform="matrix(23.124252,0,0,-23.124252,741.78516,341.1665)" gradientUnits="userSpaceOnUse" r="1" cy="0" cx="0">
      <stop id="stop11130" offset="0" style="stop-opacity:1;stop-color:#ffffff"/>
      <stop id="stop11132" offset="0.1014" style="stop-opacity:1;stop-color:#ffffff"/>
      <stop id="stop11134" offset="1" style="stop-opacity:1;stop-color:#bec0c2"/>
    </radialGradient>
    <radialGradient id="radialGradient11150" spreadMethod="pad" gradientTransform="matrix(11.252091,0,0,-11.252091,764.5957,384.8667)" gradientUnits="userSpaceOnUse" r="1" cy="0" cx="0">
      <stop id="stop11152" offset="0" style="stop-opacity:1;stop-color:#ffffff"/>
      <stop id="stop11154" offset="0.5041" style="stop-opacity:1;stop-color:#ffffff"/>
      <stop id="stop11156" offset="0.8539" style="stop-opacity:1;stop-color:#bec0c2"/>
      <stop id="stop11158" offset="1" style="stop-opacity:1;stop-color:#d0d1d3"/>
    </radialGradient>
  </defs>
  <g id="g10474" transform="matrix(1.25, -0.014498, 0, -1.25, -125.000452, 501.051887)">
    <g id="g10476">
      <g id="g10482">
        <g id="g10484">
          <path id="path10494" style="fill:url(#radialGradient10486);stroke:none" d="m 712.572,326.281 16.397,0 c 0,0 0.958,2.302 0,4.605 l 0,0 c -0.507,1.214 -0.663,1.051 -1.213,0.888 l 0,0 c -0.49,-0.146 -1.297,-0.291 -2.948,0.546 l 0,0 c 0,0 -0.003,0 -0.008,0 l 0,0 c -0.362,0 -13.024,-0.042 -12.228,-6.039"/>
        </g>
      </g>
    </g>
  </g>
  <g id="g10496" transform="matrix(1.25, -0.014498, 0, -1.25, -125.000452, 501.051887)">
    <g id="g10498">
      <g id="g10504">
        <g id="g10506">
          <path id="path10516" style="fill:url(#radialGradient10508);stroke:none" d="m 726.049,332.774 c 0,0 -13.273,-0.409 -12.461,-6.493 l 0,0 16.39,0 c 0,0 0.962,2.302 0,4.605 l 0,0 c -0.646,1.551 -2.556,3.787 -3.496,3.787 l 0,0 c -0.455,0 -0.683,-0.523 -0.433,-1.899"/>
        </g>
      </g>
    </g>
  </g>
  <g id="g10518" transform="matrix(1.25, -0.014498, 0, -1.25, -125.000452, 501.051887)">
    <g id="g10520">
      <g id="g10526">
        <g id="g10528">
          <path id="path10538" style="fill:url(#radialGradient10530);stroke:none" d="m 726.826,345.099 c -4.417,-2.488 -3.805,-7.299 -2.405,-12.225 l 0,0 c 0,0 -10.278,-1.283 -9.061,-6.593 l 0,0 17.723,0 c 0,0 0.954,2.302 0,4.605 l 0,0 c -0.963,2.3 2.238,4.988 2.872,8.308 l 0,0 c 0.733,3.81 -2.762,6.639 -6.247,6.639 l 0,0 c -0.994,0 -1.988,-0.23 -2.882,-0.734"/>
        </g>
      </g>
    </g>
  </g>
  <g id="g10540" transform="matrix(1.25, -0.014498, 0, -1.25, -125.000452, 501.051887)">
    <g id="g10542">
      <g id="g10548">
        <g id="g10550">
          <path id="path10560" style="fill:url(#radialGradient10552);stroke:none" d="m 776.058,345.069 c -2.452,-0.093 0.081,-0.724 -2.753,-3.34 l 0,0 c 0,0 -4.526,-11.994 1.358,-13.342 l 0,0 5.635,15.1 c 0,0 -1.697,1.585 -4.047,1.586 l 0,0 c -0.064,0 -0.128,-0.002 -0.193,-0.004"/>
        </g>
      </g>
    </g>
  </g>
  <g id="g10562" transform="matrix(1.25, -0.014498, 0, -1.25, -125.000452, 501.051887)">
    <g id="g10564">
      <g id="g10570">
        <g id="g10572">
          <path id="path10582" style="fill:url(#radialGradient10574);stroke:none" d="m 776.404,346.001 c -2.448,-0.091 -7.243,-2.231 -3.093,-2.976 l 0,0 c 0,0 -4.181,-12.358 1.698,-13.703 l 0,0 5.637,15.096 c 0,0 -1.699,1.587 -4.048,1.587 l 0,0 c -0.064,0 -0.129,-10e-4 -0.194,-0.004"/>
        </g>
      </g>
    </g>
  </g>
  <g id="g10584" transform="matrix(1.25, -0.014498, 0, -1.25, -125.000452, 501.051887)">
    <g id="g10586">
      <g id="g10592">
        <g id="g10594">
          <path id="path10604" style="fill:url(#radialGradient10596);stroke:none" d="m 762.231,347.982 c 0.772,-4.923 5.418,-6.013 10.433,-6.418 l 0,0 c 0,0 -2.354,-9.906 2.958,-10.61 l 0,0 6.091,16.322 c 0,0 -1.796,1.673 -4.244,1.582 l 0,0 c -2.448,-0.094 -3.822,3.773 -6.661,5.502 l 0,0 c -0.85,0.517 -1.738,0.747 -2.606,0.747 l 0,0 c -3.413,0 -6.533,-3.549 -5.971,-7.125"/>
        </g>
      </g>
    </g>
  </g>
  <g id="g10606" transform="matrix(1.25, -0.014498, 0, -1.25, -125.000452, 501.051887)">
    <g id="g10608">
      <g id="g10614">
        <g id="g10616">
          <path id="path10628" style="fill:url(#radialGradient10618);stroke:none" d="M 734.519,391.908 C 716.246,389.842 704.988,371.07 704.988,371.07 l 0,0 -7.577,-26.386 c 0,0 19.694,-13.284 51.889,-10.466 l 0,0 c 14.67,1.283 27.719,12.38 25.904,29.082 l 0,0 c -2.226,20.531 -17.048,28.977 -34.303,28.976 l 0,0 c -2.097,-0.001 -4.232,-0.125 -6.382,-0.368"/>
        </g>
      </g>
    </g>
  </g>
  <g id="g10630" transform="matrix(1.25, -0.014498, 0, -1.25, -125.000452, 501.051887)">
    <g clip-path="url(#clipPath10634)" id="g10632">
      <g transform="translate(707.1484,340.2295)" id="g10638">
        <path id="path10640" style="fill:#aaacae;fill-opacity:1;fill-rule:nonzero;stroke:none" d="m 0,0 c 3.581,2.342 5.76,6.012 6.339,9.936 4.89,8.01 5.072,18.449 -0.405,26.827 -0.953,1.454 -2.029,2.775 -3.202,3.964 -5.674,-4.265 -9.209,-8.121 -9.209,-8.121 L -9.737,4.455 c 0,0 3.301,-2.226 9.402,-4.659 C -0.225,-0.136 -0.109,-0.072 0,0"/>
      </g>
      <g transform="translate(765.0527,384.3701)" id="g10642">
        <path id="path10644" style="fill:#b4b6b8;fill-opacity:1;fill-rule:nonzero;stroke:none" d="m 0,0 c -1.769,-1.014 -2.959,-2.914 -2.959,-5.097 0,-3.247 2.633,-5.88 5.884,-5.88 1.578,0 3.014,0.629 4.074,1.647 C 5.231,-5.566 2.851,-2.472 0,0"/>
      </g>
      <g transform="translate(764.2432,339.8247)" id="g10646">
        <path id="path10648" style="fill:#b4b6b8;fill-opacity:1;fill-rule:nonzero;stroke:none" d="m 0,0 c -1.409,6.515 -7.44,5.754 -7.44,5.754 l -0.917,-3.373 2.065,-6.01 c 2.258,0.856 4.391,1.958 6.344,3.297 C 0.03,-0.22 0.021,-0.108 0,0"/>
      </g>
      <g transform="translate(723.8838,339.8247)" id="g10650">
        <path id="path10652" style="fill:#b4b6b8;fill-opacity:1;fill-rule:nonzero;stroke:none" d="M 0,0 C -1.403,6.515 -7.442,5.754 -7.442,5.754 L -8.355,2.381 -6.431,-3.217 C -4.58,-3.682 -2.617,-4.112 -0.529,-4.488 -0.046,-3.123 0.32,-1.473 0,0"/>
      </g>
    </g>
  </g>
  <g id="g10654" transform="matrix(1.25, -0.014498, 0, -1.25, -125.000452, 501.051887)">
    <g id="g10656">
      <g id="g10662">
        <g id="g10664">
          <path id="path10676" style="fill:url(#radialGradient10666);stroke:none" d="m 688.914,396.187 c -2.738,-1.789 -3.505,-5.455 -1.714,-8.187 l 0,0 c 1.789,-2.735 5.453,-3.502 8.185,-1.715 l 0,0 c 2.735,1.788 3.505,5.455 1.715,8.188 l 0,0 c -1.135,1.737 -3.026,2.68 -4.955,2.68 l 0,0 c -1.11,0 -2.233,-0.312 -3.231,-0.966"/>
        </g>
      </g>
    </g>
  </g>
  <g id="g10678" transform="matrix(1.25, -0.014498, 0, -1.25, -125.000452, 501.051887)">
    <g id="g10680">
      <g id="g10686">
        <g id="g10688">
          <path id="path10696" style="fill:url(#radialGradient10690);stroke:none" d="m 690.051,394.446 c -1.772,-1.159 -2.27,-3.534 -1.111,-5.307 l 0,0 c 1.158,-1.773 3.536,-2.271 5.306,-1.11 l 0,0 c 1.775,1.157 2.271,3.534 1.111,5.307 l 0,0 c -0.736,1.124 -1.961,1.736 -3.211,1.736 l 0,0 c -0.72,0 -1.448,-0.203 -2.095,-0.626"/>
        </g>
      </g>
    </g>
  </g>
  <g id="g10698" transform="matrix(1.25, -0.014498, 0, -1.25, -125.000452, 501.051887)">
    <g id="g10700">
      <g id="g10706">
        <g id="g10708">
          <path id="path10720" style="fill:url(#radialGradient10710);stroke:none" d="m 665.28,380.735 c -2.733,-1.787 -3.501,-5.453 -1.714,-8.189 l 0,0 c 1.79,-2.732 5.456,-3.5 8.189,-1.711 l 0,0 c 2.732,1.787 3.499,5.451 1.711,8.186 l 0,0 c -1.134,1.736 -3.024,2.679 -4.953,2.679 l 0,0 c -1.11,0 -2.234,-0.312 -3.233,-0.965"/>
        </g>
      </g>
    </g>
  </g>
  <g id="g10722" transform="matrix(1.25, -0.014498, 0, -1.25, -125.000452, 501.051887)">
    <g id="g10724">
      <g id="g10730">
        <g id="g10732">
          <path id="path10740" style="fill:url(#radialGradient10734);stroke:none" d="m 666.418,378.994 c -1.772,-1.158 -2.267,-3.536 -1.108,-5.309 l 0,0 c 1.157,-1.771 3.53,-2.268 5.306,-1.11 l 0,0 c 1.774,1.158 2.272,3.537 1.111,5.31 l 0,0 c -0.734,1.125 -1.96,1.735 -3.211,1.735 l 0,0 c -0.72,0 -1.45,-0.203 -2.098,-0.626"/>
        </g>
      </g>
    </g>
  </g>
  <g id="g10742" transform="matrix(1.25, -0.014498, 0, -1.25, -125.000452, 501.051887)">
    <g id="g10744">
      <g id="g10750">
        <g id="g10752">
          <path id="path10764" style="fill:url(#radialGradient10754);stroke:none" d="m 677.047,385.878 c -10.515,-7.866 -13.242,-22.656 -5.958,-33.802 l 0,0 c 7.583,-11.593 23.131,-14.846 34.725,-7.265 l 0,0 c 11.595,7.58 14.849,23.129 7.268,34.724 l 0,0 c -7.214,11.032 -21.635,14.504 -33.005,8.288 l 0,0 c 0.624,1.313 1.431,2.296 1.431,2.296 l 0,0 c -1.385,-0.557 -2.339,-1.901 -2.977,-3.212 l 0,0 c -0.007,-0.002 -0.01,-0.004 -0.015,-0.008 l 0,0 c 0.176,2.074 1.447,4.149 1.447,4.149 l 0,0 c -1.818,-1.039 -2.591,-3.504 -2.916,-5.17"/>
        </g>
      </g>
    </g>
  </g>
  <g id="g10766" transform="matrix(1.25, -0.014498, 0, -1.25, -125.000452, 501.051887)">
    <g id="g10768">
      <g id="g10774">
        <g id="g10776">
          <path id="path10788" style="fill:url(#radialGradient10778);stroke:none" d="m 693.042,376.533 c -2.424,-0.827 -3.714,-3.46 -2.886,-5.882 l 0,0 c 0.828,-2.42 3.461,-3.713 5.88,-2.885 l 0,0 c 2.422,0.828 3.712,3.462 2.886,5.882 l 0,0 c -0.657,1.924 -2.458,3.135 -4.383,3.135 l 0,0 c -0.496,0 -1.001,-0.08 -1.497,-0.25"/>
        </g>
      </g>
    </g>
  </g>
  <g id="g10790" transform="matrix(1.25, -0.014498, 0, -1.25, -125.000452, 501.051887)">
    <g clip-path="url(#clipPath10794)" id="g10792">
      <g transform="translate(691.9355,370.4023)" id="g10798">
        <path id="path10800" style="fill:none;stroke:#373535;stroke-width:0.5;stroke-linecap:round;stroke-linejoin:round;stroke-miterlimit:4;stroke-dasharray:none;stroke-opacity:1" d="M 0,0 C -0.961,1.437 -0.579,3.386 0.858,4.352 2.299,5.318 4.246,4.933 5.211,3.495"/>
      </g>
    </g>
  </g>
  <g id="g10802" transform="matrix(1.25, -0.014498, 0, -1.25, -125.000452, 501.051887)">
    <g id="g10804">
      <g id="g10810">
        <g id="g10812">
          <path id="path10824" style="fill:url(#radialGradient10814);stroke:none" d="m 683.463,370.27 c -2.42,-0.826 -3.713,-3.46 -2.883,-5.88 l 0,0 c 0.824,-2.422 3.458,-3.713 5.88,-2.884 l 0,0 c 2.42,0.825 3.712,3.461 2.883,5.879 l 0,0 c -0.656,1.925 -2.454,3.136 -4.38,3.136 l 0,0 c -0.497,0 -1.003,-0.081 -1.5,-0.251"/>
        </g>
      </g>
    </g>
  </g>
  <g id="g10826" transform="matrix(1.25, -0.014498, 0, -1.25, -125.000452, 501.051887)">
    <g clip-path="url(#clipPath10830)" id="g10828">
      <g transform="translate(682.3574,364.1396)" id="g10834">
        <path id="path10836" style="fill:none;stroke:#373535;stroke-width:0.5;stroke-linecap:round;stroke-linejoin:round;stroke-miterlimit:4;stroke-dasharray:none;stroke-opacity:1" d="M 0,0 C -0.963,1.439 -0.581,3.387 0.86,4.353 2.299,5.317 4.246,4.935 5.215,3.495"/>
      </g>
    </g>
  </g>
  <g id="g10838" transform="matrix(1.25, -0.014498, 0, -1.25, -125.000452, 501.051887)">
    <g id="g10840">
      <g id="g10846">
        <g id="g10848">
          <path id="path10860" style="fill:url(#radialGradient10850);stroke:none" d="m 691.42,366.827 c -6.643,-4.345 -8.505,-13.249 -4.162,-19.892 l 0,0 c 4.342,-6.643 13.252,-8.506 19.89,-4.163 l 0,0 c 6.644,4.344 8.508,13.248 4.164,19.89 l 0,0 c -2.759,4.216 -7.355,6.508 -12.045,6.507 l 0,0 c -2.696,0 -5.423,-0.758 -7.847,-2.342"/>
        </g>
      </g>
    </g>
  </g>
  <g id="g10862" transform="matrix(1.25, -0.014498, 0, -1.25, -125.000452, 501.051887)">
    <g clip-path="url(#clipPath10866)" id="g10864">
      <g transform="translate(695.9023,359.5806)" id="g10870">
        <path id="path10872" style="fill:#bec0c2;fill-opacity:1;fill-rule:nonzero;stroke:none" d="M 0,0 5.657,-8.262 0.765,0.596 0,0 Z"/>
      </g>
      <g transform="translate(691.2373,361.1099)" id="g10874">
        <path id="path10876" style="fill:#bec0c2;fill-opacity:1;fill-rule:nonzero;stroke:none" d="m 0,0 c 0,0 0.236,-2.028 2.119,-2.634 1.149,-0.369 2.124,-0.215 3.044,0.386 0.995,0.651 1.477,1.555 1.592,2.57 C 6.809,0.788 6.833,2.6 5.177,3.254 3.386,3.448 0,0 0,0"/>
      </g>
    </g>
  </g>
  <g id="g10878" transform="matrix(1.25, -0.014498, 0, -1.25, -125.000452, 501.051887)">
    <g id="g10880">
      <g id="g10886">
        <g id="g10888">
          <path id="path10896" style="fill:url(#linearGradient10890);stroke:none" d="m 691,361.473 c 0,0 0.235,-2.027 2.122,-2.633 l 0,0 c 1.151,-0.37 2.12,-0.218 3.042,0.387 l 0,0 c 0.996,0.649 1.475,1.552 1.592,2.569 l 0,0 c 0.054,0.464 0.083,2.277 -1.575,2.933 l 0,0 c -0.048,0.005 -0.098,0.007 -0.148,0.007 l 0,0 c -1.829,0 -5.033,-3.263 -5.033,-3.263"/>
        </g>
      </g>
    </g>
  </g>
  <g id="g10898" transform="matrix(1.25, -0.014498, 0, -1.25, -125.000452, 501.051887)">
    <g clip-path="url(#clipPath10902)" id="g10900">
      <g transform="translate(694.1963,359.9248)" id="g10906">
        <path id="path10908" style="fill:#4d4c4e;fill-opacity:1;fill-rule:nonzero;stroke:none" d="M 0,0 C 0,0 0.727,-0.986 1.706,-0.344 2.419,0.125 2.329,1.207 2.086,1.485 1.81,1.693 1.151,0.786 1.151,0.786 L 0,0 Z"/>
      </g>
      <g transform="translate(696.7246,362.8296)" id="g10910">
        <path id="path10912" style="fill:#373535;fill-opacity:1;fill-rule:nonzero;stroke:none" d="m 0,0 c 0,0 -0.354,-0.62 -1.423,-1.036 -1.127,-0.439 0.026,1.305 0.026,1.305 L -0.51,0.675 0,0 Z"/>
      </g>
      <g transform="translate(692.3691,359.9517)" id="g10914">
        <path id="path10916" style="fill:#373535;fill-opacity:1;fill-rule:nonzero;stroke:none" d="M 0,0 C 0,0 0.757,0.196 1.566,1.007 2.419,1.865 0.364,1.502 0.364,1.502 L -0.368,0.855 0,0 Z"/>
      </g>
    </g>
  </g>
  <g id="g10918" transform="matrix(1.25, -0.014498, 0, -1.25, -125.000452, 501.051887)">
    <g id="g10920">
      <g id="g10926">
        <g id="g10928">
          <path id="path10936" style="fill:url(#radialGradient10930);stroke:none" d="m 691.107,363.188 c -0.696,-1.626 0.687,-3.272 0.687,-3.272 l 0,0 0.985,2.042 1.024,0.687 3.394,0.934 c 0,0 -0.292,1.385 -1.981,1.714 l 0,0 c -0.271,0.053 -0.541,0.08 -0.807,0.08 l 0,0 c -1.395,0 -2.677,-0.732 -3.302,-2.185"/>
        </g>
      </g>
    </g>
  </g>
  <g id="g10938" transform="matrix(1.25, -0.014498, 0, -1.25, -125.000452, 501.051887)">
    <g id="g10940">
      <g id="g10946">
        <g id="g10948">
          <path id="path10956" style="fill:url(#linearGradient10950);stroke:none" d="m 693.22,363.684 c -0.737,-0.482 -1.503,-1.025 -1.676,-2.627 l 0,0 c -0.172,-1.6 1.146,-1.48 1.239,-0.835 l 0,0 c 0.019,0.135 -0.147,0.344 -0.093,0.601 l 0,0 c 0.078,0.372 0.517,0.604 0.894,0.396 l 0,0 c 0.412,-0.231 0.296,-0.474 0.418,-1.045 l 0,0 c 0.113,-0.504 1.194,-0.856 1.795,-0.465 l 0,0 c 0.591,0.385 0.763,1.555 0.287,1.9 l 0,0 c -0.422,0.304 -0.883,0.034 -0.862,0.775 l 0,0 c 0.012,0.435 0.406,0.622 0.784,0.587 l 0,0 c 0.199,-0.016 0.378,-0.159 0.521,-0.219 l 0,0 c 0.558,-0.233 1.304,0.915 -0.336,1.458 l 0,0 c -0.3,0.1 -0.6,0.143 -0.893,0.143 l 0,0 c -0.797,0 -1.539,-0.317 -2.078,-0.669"/>
        </g>
      </g>
    </g>
  </g>
  <g id="g10958" transform="matrix(1.25, -0.014498, 0, -1.25, -125.000452, 501.051887)">
    <g clip-path="url(#clipPath10962)" id="g10960">
      <g transform="translate(696.123,362.9453)" id="g10966">
        <path id="path10968" style="fill:#4d4c4e;fill-opacity:1;fill-rule:nonzero;stroke:none" d="m 0,0 c -0.157,0.071 -0.507,0.179 -0.784,-0.05 -0.311,-0.253 -0.338,-0.523 -0.031,-0.931 -0.058,0.082 -0.092,0.21 -0.086,0.419 0.011,0.436 0.406,0.623 0.784,0.588 C -0.079,0.023 -0.039,0.012 0,0"/>
      </g>
      <g transform="translate(693.0625,361.4077)" id="g10970">
        <path id="path10972" style="fill:#4d4c4e;fill-opacity:1;fill-rule:nonzero;stroke:none" d="m 0,0 c -0.625,-0.144 -0.584,-0.836 -0.295,-1.232 0.006,0.018 0.012,0.032 0.016,0.046 0.018,0.136 -0.147,0.345 -0.093,0.602 0.077,0.372 0.517,0.604 0.893,0.395 C 0.656,-0.264 0.732,-0.342 0.778,-0.432 0.748,-0.261 0.525,0.121 0,0"/>
      </g>
    </g>
  </g>
  <g id="g10974" transform="matrix(1.25, -0.014498, 0, -1.25, -125.000452, 501.051887)">
    <g id="g10976">
      <g id="g10982">
        <g id="g10984">
          <path id="path10992" style="fill:url(#linearGradient10986);stroke:none" d="m 700.455,353.045 c -0.649,-0.425 -0.48,-1.843 0.384,-3.162 l 0,0 c 0.87,-1.321 2.093,-2.047 2.743,-1.62 l 0,0 c 0.653,0.424 0.482,1.84 -0.381,3.162 l 0,0 c -0.697,1.065 -1.631,1.742 -2.308,1.742 l 0,0 c -0.163,0 -0.312,-0.04 -0.438,-0.122"/>
        </g>
      </g>
    </g>
  </g>
  <g id="g10994" transform="matrix(1.25, -0.014498, 0, -1.25, -125.000452, 501.051887)">
    <g clip-path="url(#clipPath10998)" id="g10996">
      <g transform="translate(702.3916,350.0801)" id="g11002">
        <path id="path11004" style="fill:#f59289;fill-opacity:1;fill-rule:nonzero;stroke:none" d="M 0,0 C -0.398,-0.262 -0.719,-0.579 -0.981,-0.919 -0.205,-1.76 0.671,-2.157 1.19,-1.817 1.709,-1.481 1.699,-0.513 1.243,0.532 0.825,0.432 0.401,0.264 0,0"/>
      </g>
    </g>
  </g>
  <g id="g11006" transform="matrix(1.25, -0.014498, 0, -1.25, -125.000452, 501.051887)">
    <g id="g11008">
      <g id="g11014">
        <g id="g11016">
          <path id="path11026" style="fill:url(#radialGradient11018);stroke:none" d="m 698.23,325.163 17.202,0 c 0,0 1.006,2.414 0,4.828 l 0,0 c -0.531,1.276 -0.695,1.105 -1.273,0.934 l 0,0 c -0.516,-0.153 -1.362,-0.305 -3.093,0.573 l 0,0 c 0,0 -0.003,0 -0.009,0 l 0,0 c -0.397,0 -13.66,-0.047 -12.827,-6.335"/>
        </g>
      </g>
    </g>
  </g>
  <g id="g11028" transform="matrix(1.25, -0.014498, 0, -1.25, -125.000452, 501.051887)">
    <g id="g11030">
      <g id="g11036">
        <g id="g11038">
          <path id="path11048" style="fill:url(#radialGradient11040);stroke:none" d="m 712.365,331.975 c 0,0 -13.919,-0.429 -13.071,-6.812 l 0,0 17.197,0 c 0,0 1.009,2.414 0,4.828 l 0,0 c -0.677,1.629 -2.682,3.975 -3.67,3.975 l 0,0 c -0.478,10e-4 -0.718,-0.548 -0.456,-1.991"/>
        </g>
      </g>
    </g>
  </g>
  <g id="g11050" transform="matrix(1.25, -0.014498, 0, -1.25, -125.000452, 501.051887)">
    <g id="g11052">
      <g id="g11058">
        <g id="g11060">
          <path id="path11070" style="fill:url(#radialGradient11062);stroke:none" d="m 713.185,344.903 c -4.638,-2.606 -3.997,-7.656 -2.528,-12.824 l 0,0 c 0,0 -10.782,-1.343 -9.504,-6.916 l 0,0 18.592,0 c 0,0 1.006,2.414 0,4.828 l 0,0 c -1.007,2.417 2.349,5.234 3.015,8.717 l 0,0 c 0.77,4 -2.897,6.965 -6.552,6.965 l 0,0 c -1.043,0 -2.085,-0.241 -3.023,-0.77"/>
        </g>
      </g>
    </g>
  </g>
  <g id="g11072" transform="matrix(1.25, -0.014498, 0, -1.25, -125.000452, 501.051887)">
    <g id="g11074">
      <g id="g11080">
        <g id="g11082">
          <path id="path11092" style="fill:url(#radialGradient11084);stroke:none" d="m 737.962,325.163 17.199,0 c 0,0 1.007,2.414 0,4.828 l 0,0 c -0.532,1.276 -0.695,1.105 -1.272,0.934 l 0,0 c -0.516,-0.153 -1.362,-0.305 -3.095,0.573 l 0,0 c 0,0 -0.004,0 -0.01,0 l 0,0 c -0.396,0 -13.659,-0.047 -12.822,-6.335"/>
        </g>
      </g>
    </g>
  </g>
  <g id="g11094" transform="matrix(1.25, -0.014498, 0, -1.25, -125.000452, 501.051887)">
    <g id="g11096">
      <g id="g11102">
        <g id="g11104">
          <path id="path11114" style="fill:url(#radialGradient11106);stroke:none" d="m 752.094,331.975 c 0,0 -13.915,-0.429 -13.07,-6.812 l 0,0 17.199,0 c 0,0 1.007,2.414 0,4.828 l 0,0 c -0.677,1.629 -2.683,3.975 -3.672,3.975 l 0,0 c -0.479,10e-4 -0.719,-0.548 -0.457,-1.991"/>
        </g>
      </g>
    </g>
  </g>
  <g id="g11116" transform="matrix(1.25, -0.014498, 0, -1.25, -125.000452, 501.051887)">
    <g id="g11118">
      <g id="g11124">
        <g id="g11126">
          <path id="path11136" style="fill:url(#radialGradient11128);stroke:none" d="m 752.91,344.903 c -4.629,-2.606 -3.991,-7.656 -2.522,-12.824 l 0,0 c 0,0 -10.782,-1.343 -9.504,-6.916 l 0,0 18.591,0 c 0,0 1.004,2.414 0,4.828 l 0,0 c -1.006,2.417 2.348,5.234 3.016,8.717 l 0,0 c 0.768,4 -2.899,6.965 -6.555,6.965 l 0,0 c -1.044,0 -2.087,-0.241 -3.026,-0.77"/>
        </g>
      </g>
    </g>
  </g>
  <g id="g11138" transform="matrix(1.25, -0.014498, 0, -1.25, -125.000452, 501.051887)">
    <g id="g11140">
      <g id="g11146">
        <g id="g11148">
          <path id="path11160" style="fill:url(#radialGradient11150);stroke:none" d="m 761.856,379.989 c 0,-3.247 2.632,-5.882 5.884,-5.882 l 0,0 c 3.244,0 5.878,2.635 5.878,5.882 l 0,0 c 0,3.246 -2.634,5.88 -5.878,5.88 l 0,0 c -3.252,0 -5.884,-2.634 -5.884,-5.88"/>
        </g>
      </g>
    </g>
  </g>
</svg>